<svg xmlns="http://www.w3.org/2000/svg" xmlns:xlink="http://www.w3.org/1999/xlink" version="1.1" x="0px" y="0px" style="enable-background:new 0 0 100 100;" xml:space="preserve" viewBox="1.29 0.86 97.64 97.64"><path d="M82.34,26.83c0.94-1.07,1.46-2.43,1.46-3.87c0-1.57-0.61-3.05-1.73-4.17c-1.11-1.11-2.59-1.73-4.17-1.73  c-1.36,0-2.65,0.46-3.69,1.3c-6.68-5.15-15.04-8.23-24.1-8.23c-9,0-17.31,3.03-23.96,8.12c-1.02-0.77-2.25-1.2-3.55-1.2  c-1.57,0-3.05,0.61-4.17,1.73c-1.11,1.11-1.73,2.59-1.73,4.17c0,1.36,0.46,2.65,1.3,3.69c-4.67,6.49-7.43,14.43-7.43,23.02  c0,21.8,17.73,39.53,39.53,39.53s39.53-17.73,39.53-39.53C89.64,41.17,86.93,33.29,82.34,26.83z M50.06,26.83  c0,0,2.41,4.19,6.64,6.23c-2.03,2.01-4.21,4.27-6.44,6.67c-2.28-2.45-4.5-4.76-6.58-6.81C47.74,30.85,50.06,26.83,50.06,26.83z   M23.96,27.13L23.7,26.3l-0.96,0.04l-0.14,0.02c-0.91,0-1.76-0.35-2.4-0.99s-0.99-1.49-0.99-2.4c0-0.9,0.35-1.76,0.99-2.4  c1.28-1.28,3.51-1.28,4.8,0c0.64,0.64,0.99,1.5,0.99,2.41L26,23.94l0.88,0.24l3.91,3.91l4.8-4.8l1.57,1.58l-3.01,3.01l1.14,0.87  c3.45,2.63,8.21,7.37,13.28,12.82c-2.17,2.37-4.38,4.84-6.55,7.31c-6.57-5.56-11.21-10.05-13.63-13.22l-0.87-1.14l-3.01,3.01  l-1.57-1.57l4.93-4.93L23.96,27.13z M40.36,50.76c-3.84,4.41-7.48,8.73-10.51,12.38c-0.36-1.36-0.55-2.78-0.55-4.22V40.53  C31.98,43.38,35.68,46.8,40.36,50.76z M63.11,73.03c-3.54,2.27-8.07,5.3-13.06,8.99c-4.99-3.69-9.51-6.73-13.06-8.99  c-0.98-0.63-1.87-1.35-2.68-2.15c5.89-4.34,11.22-8.37,15.93-12.08c4.66,3.66,9.91,7.64,15.71,11.91  C65.11,71.59,64.16,72.36,63.11,73.03z M75.85,74.83c-0.23-0.17-0.63-0.46-1.19-0.86c-8.46-6.1-15.97-11.73-22.39-16.76  c2.12-1.69,4.11-3.3,5.96-4.84C67.11,62.58,75,72.35,76.45,74.23L75.85,74.83z M60.15,50.76c4.45-3.77,8.02-7.05,10.67-9.81v17.97  c0,1.32-0.16,2.61-0.46,3.86C67.39,59.21,63.86,55.03,60.15,50.76z M80.3,25.36c-0.64,0.64-1.49,0.99-2.4,0.99h-0.01l-0.96,0.01  l-0.24,0.88l-3.91,3.91l4.8,4.8L76,37.53l-3.01-3.01l-0.87,1.13c-2.42,3.17-7.06,7.66-13.63,13.22c-0.62,0.52-1.26,1.06-1.91,1.6  c-1.96,1.63-4.07,3.34-6.33,5.14c-0.66,0.53-1.33,1.06-2.02,1.6c-6.42,5.04-13.92,10.66-22.38,16.76c-0.56,0.41-0.97,0.7-1.2,0.87  l-0.61-0.61c1.45-1.88,9.34-11.65,18.23-21.86c0.55-0.63,1.1-1.26,1.65-1.89c2.1-2.39,4.23-4.78,6.33-7.07  c0.57-0.62,1.13-1.23,1.69-1.84c5.07-5.45,9.83-10.19,13.27-12.82l1.14-0.87l-3.01-3.01l1.57-1.57l4.93,4.93l3.9-3.89l0.83-0.26  l-0.04-0.95l-0.02-0.15c0-0.91,0.35-1.76,0.99-2.4c1.28-1.28,3.51-1.28,4.79,0c0.64,0.64,0.99,1.49,0.99,2.4  C81.28,23.89,80.94,24.72,80.3,25.36z M50.11,0.86c-26.92,0-48.82,21.9-48.82,48.82S23.19,98.5,50.11,98.5  c26.92,0,48.82-21.9,48.82-48.82S77.03,0.86,50.11,0.86z M50.11,95.86c-25.47,0-46.18-20.72-46.18-46.18S24.64,3.5,50.11,3.5  c25.47,0,46.18,20.72,46.18,46.18S75.58,95.86,50.11,95.86z"></path></svg>