<svg xmlns="http://www.w3.org/2000/svg" xmlns:xlink="http://www.w3.org/1999/xlink" version="1.1" x="0px" y="0px" style="enable-background:new 0 0 100 100;" xml:space="preserve" viewBox="1.29 0.86 97.64 97.64"><g><g><path d="M50.11,10.15c-21.8,0-39.53,17.73-39.53,39.53c0,17.13,10.95,31.74,26.22,37.22l0.47-13.2c0.08-0.74,0.13-1.75,0.1-2.82    c0.03-0.57,0.03-1.09,0.02-1.57c-0.02-0.01-0.03-0.38-0.04-0.72l0.01,0.06c0-0.04-0.01-0.07-0.01-0.11    c-0.01-0.27-0.02-0.51-0.04-0.53c-0.17-1.66-0.62-1.97-1.41-2.47c-0.06-0.04-6.05-3.76-13.15-14.61    c-3.43-5.23-1.02-9.67,2.09-13.68c0.69-0.89,1.92-1.14,2.92-0.58l22.78,10.14c-0.24,1.29-0.95,3.67-3,4.78    c-2.6,1.41-6.82,0.5-12.22-2.63c-0.64-0.37-1.46-0.16-1.83,0.48s-0.15,1.46,0.48,1.83c3.43,1.99,6.47,3.17,9.09,3.52    c1.47,1.3,8.26,7.78,6.84,15.72c-0.13,0.73,0.35,1.42,1.08,1.56c0.08,0.01,0.16,0.02,0.24,0.02c0.64,0,1.2-0.46,1.32-1.1    c1.3-7.24-2.93-13.21-5.75-16.29c0.73-0.16,1.42-0.42,2.05-0.76c4.21-2.3,4.49-7.66,4.5-7.89l0.01-0.2    c1.09,0.69,2.38,1.1,3.76,1.1h0.49c1.94,0,3.71-0.79,4.98-2.07c0.93,2.7,3.48,4.64,6.49,4.64h0.47c1.92,0,3.65-0.79,4.89-2.06    c1.04,7.64-2.75,13.4-5.21,17.22c-2.44,3.79-1.37,13.06-0.69,19.96C81.07,78,89.64,64.83,89.64,49.68    C89.64,27.88,71.91,10.15,50.11,10.15z M38.04,38.32l-9.03-4.02c-0.05-0.03-0.11-0.04-0.16-0.07V27.7c0-2.4,1.95-4.35,4.35-4.35    h0.49c2.4,0,4.35,1.95,4.35,4.35V38.32z M50,42.06c0,0.51-0.1,1-0.26,1.45l-8.93-3.97V25.56c0-2.4,1.95-4.35,4.35-4.35h0.49    c2.4,0,4.35,1.95,4.35,4.35V42.06z M61.95,39.92c0,2.4-1.95,4.35-4.35,4.35h-0.49c-2.4,0-4.35-1.95-4.35-4.35V28.78    c0-2.4,1.95-4.35,4.35-4.35h0.49c2.4,0,4.35,1.95,4.35,4.35V39.92z M73.72,42.65c0,2.31-1.88,4.19-4.19,4.19h-0.47    c-2.31,0-4.19-1.88-4.19-4.19V32.29c0-2.31,1.88-4.19,4.19-4.19h0.47c2.31,0,4.19,1.88,4.19,4.19V42.65z M50.11,0.86    c-26.92,0-48.82,21.9-48.82,48.82S23.19,98.5,50.11,98.5c26.92,0,48.82-21.9,48.82-48.82S77.03,0.86,50.11,0.86z M50.11,95.86    c-25.47,0-46.18-20.72-46.18-46.18S24.64,3.5,50.11,3.5c25.47,0,46.18,20.72,46.18,46.18S75.58,95.86,50.11,95.86z"></path></g></g></svg>