<svg xmlns="http://www.w3.org/2000/svg" xmlns:xlink="http://www.w3.org/1999/xlink" version="1.1" x="0px" y="0px" style="enable-background:new 0 0 100 100;" xml:space="preserve" viewBox="1.29 0.86 97.64 97.64"><g><g><path d="M63.35,66.27c-0.21,0.33-0.81,0.19-0.79-0.17c0.38-7.69-0.52-12.33-6.22-15.85c-0.06-0.03-0.14,0.01-0.12,0.06l2.42,7.17    c-1.38-0.69-3.15-2.03-5.34-4.82c-5.9-7.5-4.33-11.78-2.38-13.9c0.18-0.19-0.02-0.47-0.31-0.42c-10.51,1.71,1.38,25.49-0.58,25.59    c-0.46,0.02-0.87-0.24-1.22-0.48c-5.88-4.08-7.88-11.07-6.36-17.14c-5.38,0.75-3.6,12.79-1.71,18.5c0.14,0.43,0.05,0.92-0.32,1.25    c-0.53,0.48-1.14,0.31-1.68,0.12c-2.3-0.81-4.45-1.88-6.38-3.18c-0.59-0.39-0.25,2.78-0.18,3.1c1.44,5.95,8.81,12.37,16.35,13.24    c7.04,0.81,13.59-3.24,16.93-8.01c1.91-2.72,3.74-7.18,2.1-10.27C65.6,62.13,64.42,64.59,63.35,66.27z M50.11,0.86    c-26.92,0-48.82,21.9-48.82,48.82S23.19,98.5,50.11,98.5s48.82-21.9,48.82-48.82S77.03,0.86,50.11,0.86z M50.11,95.86    c-25.47,0-46.18-20.72-46.18-46.18S24.64,3.5,50.11,3.5s46.18,20.72,46.18,46.18S75.58,95.86,50.11,95.86z M52.93,10.26    l-2.18-4.35c-0.26-0.53-1.02-0.53-1.28,0l-2.18,4.35c-20.48,1.45-36.71,18.57-36.71,39.42c0,21.8,17.73,39.53,39.53,39.53    s39.53-17.73,39.53-39.53C89.64,28.83,73.41,11.71,52.93,10.26z M69.32,72.45c-3.82,6.6-10.29,10.63-17.77,11.07    c-0.95,0.06-1.92,0.06-2.87,0c-7.48-0.43-13.95-4.47-17.77-11.07c-3.93-6.8-4.2-15.03-0.7-22.02l19.9-39.76l19.9,39.76    C73.51,57.42,73.25,65.65,69.32,72.45z"></path></g></g></svg>