<svg xmlns="http://www.w3.org/2000/svg" xmlns:xlink="http://www.w3.org/1999/xlink" version="1.1" x="0px" y="0px" style="enable-background:new 0 0 100 100;" xml:space="preserve" viewBox="1.29 0.86 97.64 97.64"><g><g><path d="M50.11,10.15c-21.8,0-39.53,17.73-39.53,39.53c0,20.97,16.41,38.17,37.06,39.44l0.38,1.52c0.2,0.82,0.93,1.38,1.8,1.41    c0.02,0,0.04,0,0.06,0c0.85,0,1.58-0.52,1.82-1.31l0.49-1.59c20.83-1.09,37.45-18.38,37.45-39.47    C89.64,27.88,71.91,10.15,50.11,10.15z M71.89,23.27c1.95,7.23,2.5,9.86,2.65,10.82c-3.33-1.45-6.53-2.55-9.58-3.36L71.89,23.27z     M51.33,15.89l6.97,13.66C53,28.7,48.2,28.7,43.97,29.22L51.33,15.89z M31.27,23.45l7.27,6.96c-3.76,0.99-6.86,2.31-9.23,3.54    C29.46,32.69,29.94,29.85,31.27,23.45z M38.66,35.68c15.88-5,30.69-1.16,44.03,11.42c-2.3,2.02-9.67,7.98-19.71,11.2    c-15.92,5.1-30.75,1.22-44.11-11.52C21.19,44.76,28.61,38.85,38.66,35.68z M20.39,63.55l3.26-6.6c1.15,0.66,2.38,1.33,3.68,1.98    L20.39,63.55z M28.68,75.84l3.44-14.76c2.66,1.07,5.53,2.01,8.56,2.72L28.68,75.84z M50.18,89.42c-0.08,0.26-0.46,0.25-0.53-0.02    l-6.24-25.05c2.71,0.48,5.54,0.76,8.47,0.76c1.95,0,3.94-0.12,5.97-0.39L50.18,89.42z M61.08,64.16c2.66-0.55,5.37-1.37,8.11-2.5    l2.58,14.2L61.08,64.16z M73.73,59.52c1.16-0.62,2.32-1.29,3.48-2.03l3.14,6.52L73.73,59.52z M50.11,0.86    c-26.92,0-48.82,21.9-48.82,48.82S23.19,98.5,50.11,98.5s48.82-21.9,48.82-48.82S77.03,0.86,50.11,0.86z M50.11,95.86    c-25.47,0-46.18-20.72-46.18-46.18S24.64,3.5,50.11,3.5s46.18,20.72,46.18,46.18S75.58,95.86,50.11,95.86z M62.2,47.01    c0-5.49-5.12-9.96-11.42-9.96s-11.41,4.47-11.41,9.96s5.12,9.96,11.41,9.96S62.2,52.5,62.2,47.01z M59.7,47.01    c0,3.72-3.28,6.81-7.54,7.36c0.72-1.54,1.2-4.25,1.2-7.34c0-3.12-0.49-5.85-1.22-7.38C56.41,40.2,59.7,43.29,59.7,47.01z     M49.41,54.37c-4.26-0.56-7.54-3.64-7.54-7.36c0-3.73,3.28-6.81,7.56-7.36c-0.73,1.53-1.22,4.26-1.22,7.38    C48.2,50.12,48.68,52.83,49.41,54.37z"></path></g></g></svg>