<svg xmlns="http://www.w3.org/2000/svg" xmlns:xlink="http://www.w3.org/1999/xlink" version="1.1" x="0px" y="0px" style="enable-background:new 0 0 100 100;" xml:space="preserve" viewBox="1.29 0.86 97.64 97.64"><g><g><path d="M77.58,21.3c0.15-0.3,0.27-0.59,0.36-0.9c0.37-1.35,0.04-2.66-0.95-3.8c-1.59-1.83-3.8-1.99-6.04-0.5    c-1.16-0.72-2.36-1.39-3.59-1.99c0.31-0.97,0.4-1.88,0.27-2.7c-0.23-1.38-1.07-2.44-2.44-3.06c-1.37-0.62-2.72-0.56-3.91,0.17    c-0.88,0.54-1.62,1.44-2.21,2.65c-1.55-0.36-3.12-0.64-4.73-0.81c-0.2-3.01-1.79-4.8-4.38-4.8c-2.6,0-4.2,1.81-4.38,4.84    c-1.25,0.14-2.48,0.34-3.69,0.6c-0.58-1.12-1.28-1.96-2.11-2.48c-1.19-0.74-2.54-0.8-3.91-0.19c-1.37,0.62-2.22,1.67-2.45,3.05    c-0.12,0.73-0.05,1.52,0.18,2.37c-1.48,0.68-2.91,1.45-4.28,2.3c-2.2-1.44-4.37-1.28-5.95,0.51c-1.23,1.4-1.42,3.02-0.64,4.63    c-7.48,7.2-12.15,17.3-12.15,28.47c0,21.16,16.7,38.48,37.62,39.48c0.72,1.85,1.99,2.97,3.52,3.03l0.13,0    c1.88,0,3.19-1.6,3.56-3.34c19.3-2.59,34.24-19.16,34.24-39.17C89.64,38.55,85.01,28.49,77.58,21.3z M61.2,12.3    c0.77-1.68,1.57-2.06,2.17-2.06c0.35,0,0.62,0.13,0.78,0.2c0.78,0.35,0.94,0.82,1,1.19c0.1,0.59-0.07,1.37-0.47,2.26v0    c-0.38,0.84-1.11,2.05-2.02,2.91c-0.42,0.4-1.2,1.03-1.77,0.77C59.94,17.13,60.28,14.33,61.2,12.3z M49.96,7.88    c0.47,0,1.92,0,1.92,2.92c0,2.23-0.86,4.92-1.92,4.92c-1.06,0-1.92-2.69-1.92-4.92C48.04,7.88,49.48,7.88,49.96,7.88z M35.9,11.62    c0.06-0.37,0.23-0.83,1.01-1.18c0.16-0.07,0.43-0.2,0.78-0.2c0.6,0,1.41,0.38,2.17,2.07c0.38,0.84,0.8,2.19,0.86,3.43    c0.02,0.58-0.02,1.58-0.58,1.84c-0.56,0.26-1.35-0.38-1.76-0.78c-0.9-0.86-1.62-2.07-2-2.91C35.96,12.99,35.8,12.21,35.9,11.62z     M25.25,18.04c0.18-0.2,0.55-0.62,1.23-0.62c0.54,0,1.26,0.27,2.23,1.12c1.67,1.48,3.12,3.9,2.42,4.69    c-0.71,0.79-3.29-0.34-4.95-1.82C23.98,19.48,24.94,18.4,25.25,18.04z M51.13,35.95c-0.57-0.32-1.2-0.46-1.83-0.46    c-1.84,0-3.72,1.21-4.43,2.96c-0.95,2.36,0.06,5.22,2.01,6.84c1.57,1.3,3.63,1.88,5.69,1.88c0.51,0,1.01-0.03,1.51-0.1    c4.52-0.61,8.73-4.21,9.17-8.74c0.42-4.41-2.72-8.59-6.68-10.59c-2.16-1.09-4.57-1.64-6.99-1.64c-2.72,0-5.44,0.69-7.78,2.08    c-4.42,2.62-7.32,7.66-7.27,12.8c0.07,8.27,7.65,14.47,15.5,15c5.06,0.34,15.63-0.29,14.21,7.93c-0.29,1.68-1.22,3.19-2.25,4.55    c-1.76,2.32-3.9,4.34-5.6,6.7c-1.48,2.06-2.59,4.42-2.67,6.99c-0.05,1.64,0.2,3.28-0.01,4.91c-0.13,1.02-0.94,3.98-2.56,3    c-0.47-0.28-0.72-0.82-0.91-1.33c-1.56-4.06-1.87-9.22,0.06-13.2c1.91-3.95,5.24-7,7.93-10.47c0.47-0.6,0.93-1.29,0.88-2.04    c-0.16-2.14-3.3-2.4-6-2.4c-0.86,0-1.68,0.03-2.35,0.03c-0.43,0-0.79-0.01-1.06-0.05c-9.74-1.3-19.35-6.86-20.16-17.56    c-0.54-7.08,2.64-14.13,8.29-18.38c3.23-2.43,7.14-3.45,11.04-3.45c4.33,0,8.64,1.27,11.93,3.26c4.19,2.54,7.11,7.11,7.61,11.91    c0.92,8.87-7.67,15.92-16.09,15.92c-1.51,0-3.02-0.23-4.46-0.71c-4.07-1.37-7.42-4.93-8.18-9.16c-0.76-4.23,1.28-8.91,5.07-10.94    c1.29-0.69,2.76-1.03,4.23-1.03c2.83,0,5.66,1.24,7.29,3.55c1.47,2.07,1.89,4.93,0.8,7.21c-0.93,1.93-3.02,3.29-5.13,3.29    c-0.39,0-0.77-0.05-1.15-0.14c-1.22-0.31-2.34-1.13-2.8-2.3c-0.46-1.17-0.12-2.66,0.92-3.36c0.36-0.25,0.8-0.36,1.24-0.36    c0.82,0,1.63,0.41,1.97,1.15C53.13,38.51,52.37,36.64,51.13,35.95z M75.53,19.55c-0.16,0.58-0.63,1.22-1.36,1.86l0,0    c-0.7,0.61-1.86,1.4-3.04,1.81c-0.54,0.19-1.52,0.44-1.93-0.03c-0.7-0.8,0.77-3.21,2.45-4.67c0.96-0.84,1.69-1.1,2.22-1.1    c0.69,0,1.06,0.43,1.24,0.63C75.67,18.69,75.63,19.19,75.53,19.55z M50.11,0.86c-26.92,0-48.82,21.9-48.82,48.82    S23.19,98.5,50.11,98.5s48.82-21.9,48.82-48.82S77.03,0.86,50.11,0.86z M50.11,95.86c-25.47,0-46.18-20.72-46.18-46.18    S24.64,3.5,50.11,3.5s46.18,20.72,46.18,46.18S75.58,95.86,50.11,95.86z"></path></g></g></svg>