<svg xmlns="http://www.w3.org/2000/svg" xmlns:xlink="http://www.w3.org/1999/xlink" version="1.1" x="0px" y="0px" style="enable-background:new 0 0 100 100;" xml:space="preserve" viewBox="1.29 0.86 97.64 97.64"><g><path d="M33.9,44.43c0-0.06,0.01-0.12,0.02-0.18c-0.54-1.74-2.14-3.02-4.06-3.02c-2.35,0-4.27,1.92-4.27,4.27s1.92,4.27,4.27,4.27   s4.27-1.92,4.27-4.27c0-0.12-0.03-0.23-0.04-0.35C33.97,44.93,33.9,44.69,33.9,44.43z"></path><path d="M50.11,0.86c-26.92,0-48.82,21.9-48.82,48.82S23.19,98.5,50.11,98.5s48.82-21.9,48.82-48.82S77.03,0.86,50.11,0.86z    M50.11,95.86c-25.47,0-46.18-20.72-46.18-46.18S24.64,3.5,50.11,3.5s46.18,20.72,46.18,46.18S75.58,95.86,50.11,95.86z"></path><path d="M56.3,10.66c-1.08-2.49-3.56-4.24-6.44-4.24c-1.87,0-3.63,0.73-4.96,2.06c-0.66,0.66-1.17,1.43-1.52,2.27   c-18.6,3.2-32.8,19.44-32.8,38.94c0,21.8,17.73,39.53,39.53,39.53s39.53-17.73,39.53-39.53C89.64,29.99,75.16,13.64,56.3,10.66z    M50.9,83.25c-0.03,0.12-0.14,0.21-0.26,0.21h-1.55c-0.13,0-0.23-0.09-0.26-0.21c-0.24-1.01-4.3-18.39-5.67-35.03l12.95,4.89   C54.44,68.11,51.11,82.34,50.9,83.25z M76.98,61c-0.83,0-1.5-0.67-1.5-1.5V45.93h-8.59v11.39c0,0.83-0.67,1.5-1.5,1.5   s-1.5-0.67-1.5-1.5V45.93H37.1c-0.23,3.81-3.39,6.83-7.25,6.83c-4.01,0-7.27-3.26-7.27-7.27s3.26-7.27,7.27-7.27   c3.11,0,5.75,1.96,6.79,4.71h6.17c-0.21-4.78-0.14-9.34,0.4-13.24l0.16-1.14h-5c-0.15,0-0.27-0.12-0.27-0.27v-3.33   c0-0.07,0.03-0.14,0.08-0.19c0.05-0.05,0.12-0.08,0.19-0.08h8.23l0.03-6.59l0.22-0.61l-0.47-0.45c-1-0.96-1.54-2.24-1.54-3.6   c0-1.34,0.52-2.6,1.47-3.54s2.21-1.47,3.54-1.47c2.76,0,5.01,2.25,5.02,5.01c0,1.36-0.55,2.64-1.54,3.6l-0.44,0.54l0.22,0.61v6.5   h8.23c0.07,0,0.14,0.03,0.19,0.08c0.05,0.05,0.08,0.12,0.08,0.19v3.33c0,0.15-0.12,0.27-0.27,0.27h-5l0.16,1.14   c0.54,3.91,0.61,8.47,0.4,13.24h20.06c0.83,0,1.5,0.67,1.5,1.5V59.5C78.48,60.33,77.8,61,76.98,61z"></path></g></svg>