<svg xmlns="http://www.w3.org/2000/svg" xmlns:xlink="http://www.w3.org/1999/xlink" version="1.1" x="0px" y="0px" style="enable-background:new 0 0 100 100;" xml:space="preserve" viewBox="1.29 0.86 97.64 97.64"><path d="M82.5,27.05c0.57-0.97,0.99-1.55,1.01-1.57c0.28-0.38,0.33-0.88,0.12-1.3c-0.21-0.42-0.63-0.69-1.1-0.7  c-1.03-0.02-2.01-0.08-2.98-0.15c-6.77-7.55-16.38-12.5-27.15-13.12c-0.69-0.91-1.23-1.74-1.64-2.43c-0.44-0.74-1.32-1.17-2.21-1.09  c-0.89,0.08-1.62,0.62-1.91,1.4c-0.25,0.66-0.59,1.46-1.06,2.33c-9.89,1.13-18.68,5.92-24.97,12.98c-0.64,0.04-1.3,0.06-1.98,0.08  c-0.45,0.01-0.86,0.26-1.07,0.65c-0.21,0.39-0.2,0.87,0.03,1.25c0.01,0.01,0.23,0.39,0.57,1.04c-4.77,6.53-7.58,14.56-7.58,23.25  c0,19.86,14.72,36.32,33.82,39.1c0.6,2.66,2.98,4.66,5.83,4.66c2.86,0,5.25-2.02,5.84-4.7c18.98-2.88,33.58-19.29,33.58-39.06  C89.64,41.27,86.99,33.47,82.5,27.05z M34.18,49.82l4.49-4.47c0.31,1.48,0.9,2.87,1.73,4.1L34.18,49.82z M40.07,37.08  c-0.87,1.46-1.43,3.12-1.59,4.89l-4.01-3.28L40.07,37.08z M39.66,28.94l5.21,3.69c-1.26,0.63-2.4,1.48-3.35,2.51L39.66,28.94z   M53.68,51.88l-0.62,0.26v32.55l0.23,0.28c0.6,0.73,0.91,1.6,0.91,2.5c0,2.19-1.78,3.98-3.98,3.98s-3.98-1.78-3.98-3.98  c0-0.91,0.32-1.77,0.91-2.5l0.23-0.28V52.25l-0.66-0.24c-3.77-1.38-6.31-5-6.31-9.01c0-5.29,4.31-9.6,9.6-9.6  c5.29,0,9.6,4.31,9.6,9.6C59.62,46.91,57.29,50.39,53.68,51.88z M47.92,31.6l1.87-6.22l2.41,6.24c-0.71-0.14-1.43-0.21-2.18-0.21  C49.31,31.4,48.61,31.48,47.92,31.6z M56.25,33.23l5.44-2.7l-2.47,5.43C58.4,34.89,57.39,33.96,56.25,33.23z M59.59,49.56  c0.73-1.07,1.29-2.26,1.63-3.53l4.16,4.07L59.59,49.56z M61.62,42.89c-0.01-1.49-0.31-2.92-0.84-4.22l5.72,0.97L61.62,42.89z   M71.24,48.07c0.22-1.25,0.34-2.52,0.34-3.83c0-12.01-9.77-21.78-21.78-21.78c-12.01,0-21.78,9.77-21.78,21.78  c0,1.65,0.19,3.25,0.54,4.79c-3.62,0.95-6.89,2.02-9.48,2.96c3.47-4.36,4.6-9.05,4.59-13.32c0.03-5.36-1.74-10.06-2.92-12.59  c18.81-1.07,25.54-10.71,27.8-15.89c-0.03,0-0.05,0-0.08,0.01c0.12-0.27,0.24-0.54,0.34-0.79c0.15,0.24,0.31,0.5,0.49,0.76  c-0.04,0-0.07,0-0.11,0c3.31,5.11,12.02,14.76,30.97,15.89c-1.54,2.65-3.83,7.53-3.73,13.03c0.01,0.84,0.06,1.7,0.19,2.56  c0.46,3.12,1.74,5.97,3.8,8.5C78.02,49.46,74.89,48.69,71.24,48.07z M50.11,0.86c-26.92,0-48.82,21.9-48.82,48.82  S23.19,98.5,50.11,98.5s48.82-21.9,48.82-48.82S77.03,0.86,50.11,0.86z M50.11,95.86c-25.47,0-46.18-20.72-46.18-46.18  S24.64,3.5,50.11,3.5s46.18,20.72,46.18,46.18S75.58,95.86,50.11,95.86z"></path></svg>