<svg xmlns="http://www.w3.org/2000/svg" xmlns:xlink="http://www.w3.org/1999/xlink" version="1.1" x="0px" y="0px" style="enable-background:new 0 0 100 100;" xml:space="preserve" viewBox="1.29 0.86 97.64 97.64"><g><path d="M64.96,13.06c-0.4-0.17-0.1-2.05-0.1-2.42c0-0.23,0-0.46-0.09-0.67c-0.08-0.2-0.24-0.35-0.39-0.51   c-0.5-0.51-1.16-1.24-1.87-0.53c-0.82,0.81-1.6,1.66-2.35,2.53c-3.21-0.84-6.58-1.3-10.05-1.3c-21.8,0-39.53,17.73-39.53,39.53   s17.73,39.53,39.53,39.53s39.53-17.73,39.53-39.53C89.64,33.14,79.42,18.94,64.96,13.06z M50.59,30.02   c2.33-7.25,6.85-13.72,12.4-18.91c0.66-0.61,0.17,2.52,0.17,2.52c-0.17,2.7,0.57,3.53,1.25,6.14c0.67,2.58,1.53,5.13,1.85,7.79   c0.39,3.23-0.04,6.52-0.88,9.67c-0.46,1.75-1.06,3.48-2.06,4.99c-1,1.51-2.43,2.78-4.16,3.3c-2.04,0.62-4.34,0.11-6.06-1.14   c-1.72-1.26-2.88-3.2-3.37-5.28C49.03,36.1,49.65,32.95,50.59,30.02z M34.76,27.54c0.4-1.3,0.65-2.65,0.79-4   c0.08-0.71,0.12-1.41,0.12-2.12c0-0.34-0.02-0.71,0.1-0.91c0.1-0.17,0.31-0.21,0.72,0.03c0.25,0.14,0.45,0.36,0.64,0.58   c4.68,5.16,8.32,10.87,9.64,17.82c0.31,1.65,0.49,3.37-0.06,4.97c-0.55,1.6-1.96,3.08-3.86,3.46c-2.35,0.46-4.72-0.86-6.23-2.48   C31.76,39.66,32.96,33.42,34.76,27.54z M23.55,56.87c-2.28-2.92-2.25-7.57-1.82-10.82c0.24-1.83,0.41-3.67,0.55-5.51   c0.13-1.7-0.01-3.64,0.4-5.3c0.12,0.12,0.2,0.27,0.3,0.41c0.41,0.64,0.69,1.34,0.89,2.07c1.07,3.85,3.11,7.42,5.89,10.29   c1.74,1.8,3.79,3.36,4.69,5.85c0.41,1.13,0.41,2.41-0.05,3.52C32.42,62.23,26.04,60.05,23.55,56.87z M71.53,70.98   c-0.34,2.88-1.73,5.63-3.85,7.62c-1.75,1.64-4.19,2.79-6.52,2.25c-2.19-0.51-3.78-2.33-5.25-4.02c-1.47-1.69-3.17-3.46-5.39-3.79   c-1.79-0.26-3.58,0.49-5.13,1.42c-1.55,0.94-2.98,2.09-4.65,2.78c-3.69,1.52-8.3,0.38-10.85-2.68c-1.1-1.32-1.84-3-1.82-4.72   s0.86-3.47,2.34-4.36c2.08-1.26,4.98-0.7,6.87-2.22c1.12-0.9,1.63-2.35,1.92-3.75c0.29-1.4,0.42-2.86,1-4.18   c0.99-2.27,3.23-3.82,5.61-4.48c2.39-0.66,4.92-0.52,7.37-0.17c2.33,0.34,4.68,0.89,6.66,2.15c2.19,1.39,3.93,3.85,3.77,6.53   l2.15,1.19C70.47,61.14,72.01,66.96,71.53,70.98z M77.97,51.39c-0.85,1.56-2.19,2.83-3.76,3.66c-1.5,0.79-3.25,1.2-4.91,0.83   s-3.16-1.58-3.61-3.22c-0.4-1.46,0.08-3.04,0.89-4.31c0.81-1.28,1.93-2.32,2.98-3.4c3.29-3.39,6.06-7.45,7.22-12.06   c0.13-0.52,0.28-0.99,0.93-0.96c-0.02,0,0.76,5.71,0.84,6.19c0.35,2.16,0.66,4.33,0.71,6.51C79.31,46.96,79.08,49.36,77.97,51.39z"></path><path d="M50.11,0.86c-26.92,0-48.82,21.9-48.82,48.82S23.19,98.5,50.11,98.5s48.82-21.9,48.82-48.82S77.03,0.86,50.11,0.86z    M50.11,95.86c-25.47,0-46.18-20.72-46.18-46.18S24.64,3.5,50.11,3.5s46.18,20.72,46.18,46.18S75.58,95.86,50.11,95.86z"></path></g></svg>