<svg xmlns="http://www.w3.org/2000/svg" xmlns:xlink="http://www.w3.org/1999/xlink" version="1.1" x="0px" y="0px" style="enable-background:new 0 0 100 100;" xml:space="preserve" viewBox="1.29 0.86 97.64 97.64"><g><path d="M80.98,25.04C80.12,22,78.8,18.69,76.9,15.1c-0.63-1.19-1.86-1.93-3.22-1.93c-0.98,0-1.94,0.39-2.62,1.08   c-0.41,0.41-0.68,0.9-0.85,1.44c-5.9-3.5-12.76-5.54-20.09-5.54c-7.32,0-14.16,2.03-20.04,5.5c-0.17-0.52-0.45-1.01-0.84-1.41   c-0.68-0.68-1.64-1.08-2.62-1.08c-1.35,0-2.58,0.74-3.22,1.93c-1.88,3.54-3.18,6.8-4.04,9.8c-5.48,6.78-8.77,15.4-8.77,24.77   c0,21.8,17.73,39.53,39.53,39.53s39.53-17.73,39.53-39.53C89.64,40.36,86.39,31.8,80.98,25.04z M73.77,49.32   c-1.58,1.81-3.1,2.56-4.29,2.56c-1.48,0-2.46-1.15-2.46-2.87c0-2.46-1.89-2.72-2.67-2.72c-0.21,0-0.34,0.02-0.34,0.02l-2.57,0.93   l0.32,11.51c0,4.77,2.35,6.51,4.28,7.14c0.8,0.26,0.97,1.27,0.32,1.8c-4.94,3.99-8.91,11.48-11.18,16.5   c-0.2,0.44-0.59,0.63-0.98,0.63c-0.55,0-1.11-0.39-1.11-1.06V65.29c0.32-5.6,5.46-13.69,5.46-13.69c-0.69-0.43-1.34-0.61-1.95-0.61   c-2.6,0-4.48,3.28-5.21,4.82c-0.23,0.47-0.71,0.77-1.24,0.77c-0.53,0-1.02-0.3-1.24-0.77c-0.73-1.53-2.61-4.82-5.21-4.82   c-0.61,0-1.26,0.18-1.95,0.61c0,0,5.14,8.09,5.46,13.69v18.47c0,0.67-0.55,1.06-1.11,1.06c-0.39,0-0.78-0.2-0.98-0.63   c-2.27-5.02-6.25-12.51-11.18-16.5c-0.65-0.52-0.48-1.54,0.32-1.8c1.93-0.62,4.28-2.37,4.28-7.14l0.32-11.51l-2.57-0.93   c0,0-0.13-0.02-0.34-0.02c-0.79,0-2.67,0.26-2.67,2.72c0,1.72-0.98,2.87-2.46,2.87c-1.19,0-2.71-0.75-4.29-2.56   c0,0-12.92-10.34-0.9-33.04c0.22-0.41,0.6-0.59,0.99-0.59c0.57,0,1.13,0.4,1.13,1.08c-0.02,5.84,0.78,15.67,6.3,17.54   c0.1,0.03,0.21,0.05,0.31,0.05c0.29,0,0.57-0.12,0.78-0.33l2.25-2.17c0.22-0.21,0.5-0.32,0.79-0.32c0.3,0,0.6,0.12,0.82,0.35   l1.79,1.91c0.22,0.23,0.52,0.35,0.82,0.35c0.21,0,0.42-0.06,0.6-0.17l3.71-2.31c0,0,0.08,0.01,0.23,0.01   c0.69,0,2.75-0.28,3.06-3.63c0.04-0.45,0.41-0.81,0.88-0.81h0.13c0.47,0,0.84,0.36,0.88,0.81c0.3,3.35,2.36,3.63,3.06,3.63   c0.14,0,0.23-0.01,0.23-0.01l3.71,2.31c0.19,0.12,0.39,0.17,0.6,0.17c0.31,0,0.61-0.12,0.82-0.35l1.79-1.91   c0.22-0.23,0.52-0.35,0.82-0.35c0.28,0,0.57,0.1,0.79,0.32l2.25,2.17c0.21,0.2,0.49,0.33,0.78,0.33c0.1,0,0.21-0.02,0.31-0.05   c5.52-1.87,6.32-11.69,6.3-17.54c0-0.68,0.56-1.08,1.13-1.08c0.39,0,0.77,0.18,0.99,0.59C86.69,38.98,73.77,49.32,73.77,49.32z"></path><path d="M50.11,0.86c-26.92,0-48.82,21.9-48.82,48.82S23.19,98.5,50.11,98.5c26.92,0,48.82-21.9,48.82-48.82S77.03,0.86,50.11,0.86   z M50.11,95.86c-25.47,0-46.18-20.72-46.18-46.18S24.64,3.5,50.11,3.5c25.47,0,46.18,20.72,46.18,46.18S75.58,95.86,50.11,95.86z"></path></g></svg>