<svg xmlns="http://www.w3.org/2000/svg" xmlns:xlink="http://www.w3.org/1999/xlink" version="1.1" x="0px" y="0px" style="enable-background:new 0 0 100 100;" xml:space="preserve" viewBox="1.29 0.86 97.64 97.64"><g><g><path d="M50.11,0.86c-26.92,0-48.82,21.9-48.82,48.82S23.19,98.5,50.11,98.5s48.82-21.9,48.82-48.82S77.03,0.86,50.11,0.86z     M50.11,95.86c-25.47,0-46.18-20.72-46.18-46.18S24.64,3.5,50.11,3.5s46.18,20.72,46.18,46.18S75.58,95.86,50.11,95.86z     M77.77,21.49c-1.47-3.94-3.64-7.55-6.35-10.35c-0.4-0.41-0.95-0.6-1.51-0.54c-0.57,0.07-1.08,0.4-1.38,0.9    c-0.5,0.85-1.08,1.64-1.69,2.4c-5.08-2.39-10.74-3.74-16.72-3.74c-5.98,0-11.64,1.36-16.72,3.74c-0.61-0.76-1.19-1.55-1.69-2.4    c-0.29-0.5-0.81-0.83-1.38-0.9c-0.56-0.06-1.12,0.13-1.51,0.54c-2.71,2.81-4.88,6.41-6.35,10.35    c-7.32,7.18-11.87,17.15-11.87,28.19c0,19.67,14.44,36.02,33.27,39.03l6.26,5.84l6.26-5.84C75.2,85.7,89.64,69.35,89.64,49.68    C89.64,38.64,85.08,28.67,77.77,21.49z M46.73,22.45h6.76v23h-6.76V22.45z M52.58,47.95v24.14h-4.94V47.95H52.58z M30.01,52.63    c-4.46-4.99-7.2-12.39-7.2-19.56s2.74-14.57,7.2-19.56c0.56,0.87,1.18,1.7,1.85,2.48c-3.75,4.35-5.8,9.79-5.8,15.54    c0,6.52,2.57,13.16,6.74,17.56C31.77,50.18,30.83,51.36,30.01,52.63z M44.23,42.5l-0.06-0.08c-3.52,0.91-6.79,2.63-9.55,4.98    c-3.7-3.9-6.06-10.03-6.06-15.85c0-5.06,1.77-9.85,5.02-13.71c2.98,2.85,6.65,4.89,10.65,5.91V42.5z M50.11,91.13l-4.34-4.05    l0.88-12.48h6.93l0.88,12.48L50.11,91.13z M55.99,42.4V23.74c3.99-1.02,7.67-3.07,10.65-5.91c3.25,3.86,5.02,8.65,5.02,13.71    c0,5.82-2.36,11.95-6.06,15.85C62.83,45.02,59.53,43.31,55.99,42.4z M70.21,52.63c-0.82-1.27-1.76-2.45-2.79-3.53    c4.17-4.39,6.74-11.04,6.74-17.56c0-5.75-2.05-11.2-5.8-15.54c0.66-0.78,1.29-1.61,1.85-2.48c4.46,4.99,7.2,12.39,7.2,19.56    S74.67,47.64,70.21,52.63z"></path></g></g></svg>