<svg xmlns="http://www.w3.org/2000/svg" xmlns:xlink="http://www.w3.org/1999/xlink" version="1.1" x="0px" y="0px" style="enable-background:new 0 0 100 100;" xml:space="preserve" viewBox="1.29 0.86 97.64 97.64"><path d="M54.13,10.35l-2.65-4.93L48.3,10.2c-20.96,0.95-37.72,18.29-37.72,39.48c0,21.8,17.73,39.53,39.53,39.53  s39.53-17.73,39.53-39.53C89.64,29.24,74.04,12.37,54.13,10.35z M59.1,83.31c-0.57,0.6-1.52,0.61-2.12,0.04l-6.67-6.43l-7.36,6.48  c-0.29,0.25-0.64,0.37-0.99,0.37c-0.42,0-0.83-0.17-1.13-0.51c-0.55-0.62-0.49-1.57,0.13-2.12l8.39-7.39  c0.59-0.52,1.47-0.5,2.03,0.05l7.67,7.39C59.66,81.76,59.68,82.71,59.1,83.31z M59.1,76.65c-0.57,0.6-1.52,0.61-2.12,0.04  l-6.67-6.43l-7.36,6.48c-0.29,0.25-0.64,0.37-0.99,0.37c-0.42,0-0.83-0.17-1.13-0.51c-0.55-0.62-0.49-1.57,0.13-2.12l8.39-7.39  c0.59-0.52,1.47-0.5,2.03,0.05l7.67,7.39C59.66,75.11,59.68,76.06,59.1,76.65z M77.26,64.17c-0.65,1.12-1.83,1.75-3.04,1.75  c-0.59,0-1.19-0.15-1.74-0.47c-0.2-0.11-0.37-0.25-0.54-0.39l-10.73,6.84c-0.17,0.11-0.35,0.16-0.54,0.16  c-0.33,0-0.65-0.16-0.84-0.46c-0.3-0.47-0.16-1.08,0.3-1.38l10.73-6.84c-0.25-0.88-0.16-1.85,0.33-2.71  c7.71-13.39,1.84-21.7-1.61-25.04l-9.38,7.44c-1.51,1.2-3.72,0.95-4.92-0.57c-0.29-0.36-0.48-0.76-0.61-1.17h-3.18v19.25l7.57,7.3  c0.6,0.57,0.61,1.52,0.04,2.12c-0.57,0.6-1.52,0.61-2.12,0.04l-6.67-6.43l-7.36,6.48c-0.29,0.25-0.64,0.37-0.99,0.37  c-0.42,0-0.83-0.17-1.13-0.51c-0.55-0.62-0.49-1.57,0.13-2.12l7.68-6.76h-0.16V41.33h-3.07c-0.12,0.41-0.32,0.81-0.61,1.17  c-1.2,1.51-3.4,1.77-4.92,0.57l-9.39-7.44c-3.44,3.33-9.33,11.65-1.61,25.05c0.49,0.85,0.58,1.83,0.33,2.71l10.73,6.84  c0.47,0.3,0.6,0.92,0.3,1.38c-0.19,0.3-0.51,0.46-0.84,0.46c-0.18,0-0.37-0.05-0.54-0.16l-10.73-6.84  c-0.17,0.14-0.34,0.27-0.54,0.39c-0.55,0.32-1.15,0.47-1.74,0.47c-1.21,0-2.39-0.63-3.04-1.75c-13.21-22.94,5.5-35.82,5.69-35.95  c1.26-0.85,2.93-0.78,4.12,0.17l11.6,9.2c0.58,0.46,0.98,1.08,1.17,1.74h3.07V22.82l-8.08,3.73l10.84-16.33l8.93,16.61l-8.69-4.01  v16.51h3.18c0.2-0.66,0.59-1.28,1.17-1.74l11.6-9.2c1.19-0.95,2.86-1.01,4.12-0.17C71.76,28.35,90.47,41.23,77.26,64.17z   M50.11,0.86c-26.92,0-48.82,21.9-48.82,48.82S23.19,98.5,50.11,98.5s48.82-21.9,48.82-48.82S77.03,0.86,50.11,0.86z M50.11,95.86  c-25.47,0-46.18-20.72-46.18-46.18S24.64,3.5,50.11,3.5s46.18,20.72,46.18,46.18S75.58,95.86,50.11,95.86z"></path></svg>