<svg xmlns="http://www.w3.org/2000/svg" xmlns:xlink="http://www.w3.org/1999/xlink" version="1.1" x="0px" y="0px" style="enable-background:new 0 0 100 100;" xml:space="preserve" viewBox="1.29 0.86 97.64 97.64"><g><path d="M54.13,73.86c1.04-0.12,1.99-0.31,2.86-0.55V42.68h-2.86V73.86z"></path><path d="M48.76,74.02c0.11,0,0.21,0.01,0.31,0.01c0.3,0,0.6,0,0.91-0.01h0.27c0.31,0.01,0.61,0.01,0.91,0.01   c0.16,0,0.3-0.01,0.45-0.01V42.68h-2.86V74.02z"></path><path d="M43.4,73.35c0.88,0.23,1.83,0.41,2.86,0.53v-31.2H43.4V73.35z"></path><path d="M81.12,25.2c0.16-0.17,0.31-0.33,0.48-0.51c0.88-0.92,1.03-2.33,0.37-3.42l-2.92-4.8c-0.7-1.15-1.92-1.83-3.26-1.83   c-0.94,0-1.85,0.35-2.56,0.98c-0.48,0.43-0.89,0.8-1.27,1.13c-6.26-4.17-13.77-6.61-21.84-6.61c-8.06,0-15.57,2.43-21.83,6.59   c-0.38-0.33-0.79-0.7-1.26-1.12c-0.7-0.63-1.61-0.98-2.56-0.98c-1.35,0-2.57,0.69-3.26,1.83l-2.92,4.8   c-0.66,1.09-0.51,2.49,0.37,3.42c0.16,0.17,0.31,0.33,0.47,0.49c-5.34,6.74-8.54,15.25-8.54,24.49c0,21.8,17.73,39.53,39.53,39.53   s39.53-17.73,39.53-39.53C89.64,40.44,86.45,31.94,81.12,25.2z M21.12,42.68c-1.63,0-2.95-1.33-2.95-2.95s1.32-2.95,2.95-2.95h5.4   l0.51,1.17l-0.7,4.74H21.12z M50.26,82.27h-0.27C23.71,81.2,26.12,61.14,26.12,61.14l3.46-23.43c0.02-0.11-0.01-0.22-0.07-0.31   l-3.62-8.36c-0.1-0.15-0.7-1.08-5.43-6.06c-0.1-0.11-0.12-0.27-0.05-0.4l2.92-4.8c0.25-0.41,0.69-0.63,1.13-0.63   c0.31,0,0.63,0.11,0.88,0.34c4.08,3.67,4.44,3.73,4.56,4.01l6.4,13.9l-2.95,24.14c0,0-0.65,9.18,7.54,12.93V42.68h-2.96l0.72-5.91   h2.23v-5.31c0-0.69,0.56-1.25,1.25-1.25s1.25,0.56,1.25,1.25v5.31h2.86v-5.31c0-0.69,0.56-1.25,1.25-1.25s1.25,0.56,1.25,1.25v5.31   h2.86v-5.31c0-0.69,0.56-1.25,1.25-1.25s1.25,0.56,1.25,1.25v5.31h2.86v-5.31c0-0.69,0.56-1.25,1.25-1.25s1.25,0.56,1.25,1.25v5.31   h2.1l0.72,5.91h-2.82v29.72c8.04-3.79,7.4-12.86,7.4-12.86l-2.95-24.14l6.4-13.9c0.13-0.28,0.48-0.34,4.56-4.01   c0.26-0.23,0.57-0.34,0.88-0.34c0.44,0,0.88,0.22,1.13,0.63l2.92,4.8c0.08,0.13,0.05,0.29-0.05,0.4c-4.73,4.99-5.32,5.91-5.43,6.06   l-3.62,8.36c-0.06,0.09-0.09,0.2-0.07,0.31l3.46,23.43C74.13,61.14,76.54,81.2,50.26,82.27z M79.4,42.68h-5.47l-0.7-4.74l0.51-1.17   h5.66c1.63,0,2.95,1.33,2.95,2.95S81.02,42.68,79.4,42.68z"></path><path d="M50.11,0.86c-26.92,0-48.82,21.9-48.82,48.82S23.19,98.5,50.11,98.5s48.82-21.9,48.82-48.82S77.03,0.86,50.11,0.86z    M50.11,95.86c-25.47,0-46.18-20.72-46.18-46.18S24.64,3.5,50.11,3.5s46.18,20.72,46.18,46.18S75.58,95.86,50.11,95.86z"></path></g></svg>